<svg height="512" viewBox="0 0 512 512" width="512" xmlns="http://www.w3.org/2000/svg"><path d="m327.311 481.2a23.885 23.885 0 0 0 16.689 6.8h14.627a16 16 0 0 1 -11.314-4.687 16 16 0 0 0 -20.002-2.113z" fill="#48add9"/><path d="m442.53 296.41a49.3 49.3 0 0 0 0 31.18l2.94 8.82a49.186 49.186 0 0 1 2.53 15.59v112a24.006 24.006 0 0 1 -24 24h-17.37a15.927 15.927 0 0 1 -6.13-1.22 16.279 16.279 0 0 1 -4.48-2.82c-.25-.21-.49-.43-.71-.65s-.45-.44-.69-.65c-.4-.35-.81-.68-1.24-.99-.22-.17-.45-.32-.68-.48a16.03 16.03 0 0 0 -20.01 2.12 16.008 16.008 0 0 1 -11.32 4.69h-17.37a24.006 24.006 0 0 1 -24-24v-112a49.186 49.186 0 0 1 2.53-15.59l2.94-8.82a49.3 49.3 0 0 0 0-31.18l-2.94-8.82a49.186 49.186 0 0 1 -2.53-15.59v-33.24a96.028 96.028 0 0 1 17.88-55.79l22.12-30.97v-40h48v40l22.12 30.97a95.934 95.934 0 0 1 17.88 55.79v33.24a49.186 49.186 0 0 1 -2.53 15.59l-.14.41z" fill="#348fd9"/><path d="m448 238.76v33.24a49.186 49.186 0 0 1 -2.53 15.59l-.14.41-2.8 8.41a49.3 49.3 0 0 0 0 31.18l2.94 8.82a49.186 49.186 0 0 1 2.53 15.59v112a24.006 24.006 0 0 1 -24 24h-16a20.08 20.08 0 0 1 -11.98-4.04c-.25-.21-.49-.43-.71-.65s-.45-.44-.69-.65c-.4-.35-.81-.68-1.24-.99-.23-.16-.46-.32-.69-.47l.01-.01a23.888 23.888 0 0 0 7.3-17.19v-112a49.186 49.186 0 0 0 -2.53-15.59l-2.94-8.82a49.3 49.3 0 0 1 0-31.18l2.8-8.41.14-.41a49.186 49.186 0 0 0 2.53-15.59v-33.24a95.581 95.581 0 0 0 -1.14-14.76 95.927 95.927 0 0 0 -16.74-41.03l-22.12-30.97v-40h48v40l22.12 30.97a95.934 95.934 0 0 1 17.88 55.79z" fill="#3086cd"/><g fill="#2d7dbf"><path d="m446.86 224h-70.86v-16h66.94a96.55 96.55 0 0 1 3.92 16z"/><path d="m376 240h72v16h-72z"/><path d="m448 272a49.186 49.186 0 0 1 -2.53 15.59l-.14.41h-69.33v-16z"/><path d="m376 352h72v16h-72z"/><path d="m376 384h72v16h-72z"/><path d="m376 416h72v16h-72z"/></g><path d="m368 312-8 16 8 16v16l-8 16 8 16v16l-8 16 8 16v32a16.463 16.463 0 0 1 -11.44 16h-12.56a24.006 24.006 0 0 1 -24-24v-112a49.186 49.186 0 0 1 2.53-15.59l2.94-8.82a49.3 49.3 0 0 0 0-31.18l-2.94-8.82a49.186 49.186 0 0 1 -2.53-15.59v-33.24a95.917 95.917 0 0 1 2.74-22.76h13.26v32l23.16 11.58a16 16 0 0 1 8.84 14.31z" fill="#3086cd"/><path d="m272 192v242a54 54 0 0 1 -86.4 43.2 29.34 29.34 0 0 0 -35.2 0 54.006 54.006 0 0 1 -85.94-36.11 55.305 55.305 0 0 1 -.46-7.09v-242a104 104 0 0 1 72-98.93v-69.07h64v69.07a103.9 103.9 0 0 1 72 98.93z" fill="#4db7e5"/><path d="m272 192v242a54 54 0 0 1 -86.4 43.2 29.34 29.34 0 0 0 -35.2 0 54.006 54.006 0 0 1 -85.94-36.11c68.5-47.19 141.6-134.74 196.85-295.04a103.456 103.456 0 0 1 10.69 45.95z" fill="#48add9"/><path d="m132.43 138.781-8.86-13.32a80.5 80.5 0 0 1 19.809-9.555l4.922 15.227a64.537 64.537 0 0 0 -15.871 7.648z" fill="#79c6e8"/><path d="m104.391 184.879-15.907-1.758a80.24 80.24 0 0 1 21.754-46.521l11.539 11.086a64.1 64.1 0 0 0 -17.386 37.193z" fill="#79c6e8"/><path d="m120 56h96v16h-96z" fill="#79c6e8"/><path d="m64 208h208v176h-208z" fill="#f35244"/><path d="m88 232h16v16h-16z" fill="#fc685b"/><path d="m88 264h16v72h-16z" fill="#fc685b"/><path d="m136 72h64v24h-64z" fill="#48add9"/><path d="m272 208v176h-142.63c38.06-41.59 75.39-98.46 108.25-176z" fill="#ea4a3b"/><path d="m344 328 8 16v16l-8 16 8 16v16l-8 16 8 16v32a16 16 0 0 1 -16 16h-80a16 16 0 0 1 -16-16v-32l8-16-8-16v-16l8-16-8-16v-16l8-16-8-16v-38.11a16 16 0 0 1 8.84-14.31l23.16-11.58v-32h48v32l23.16 11.58a16 16 0 0 1 8.84 14.31v38.11z" fill="#60d1e0"/><path d="m352 312-8 16 8 16v16l-8 16 8 16v16l-8 16 8 16v32a16 16 0 0 1 -16 16h-32a16 16 0 0 0 16-16v-32l-8-16 8-16v-16l-8-16 8-16v-16l-8-16 8-16v-38.11a16 16 0 0 0 -8.84-14.31l-23.16-11.58v-32h32v32l23.16 11.58a16 16 0 0 1 8.84 14.31z" fill="#5ac6d4"/><path d="m344 328 4 8h-76v-16h76z" fill="#3fb7c7"/><path d="m344 376 4 8h-76v-16h76z" fill="#3fb7c7"/><path d="m344 424 4 8h-76v-16h76z" fill="#3fb7c7"/><path d="m264 280h16v24h-16z" fill="#9fe4ed"/><ellipse cx="296" cy="216" fill="#3fb7c7" rx="24" ry="16"/></svg>