<?xml version="1.0" encoding="iso-8859-1"?>
<!-- Generator: Adobe Illustrator 19.0.0, SVG Export Plug-In . SVG Version: 6.00 Build 0)  -->
<svg version="1.1" id="Layer_1" xmlns="http://www.w3.org/2000/svg" xmlns:xlink="http://www.w3.org/1999/xlink" x="0px" y="0px"
	 viewBox="0 0 512 512" style="enable-background:new 0 0 512 512;" xml:space="preserve">
<g transform="translate(1 1)">
	<path style="fill:#FFDD09;" d="M257.735,365.08c-12.8-30.72-19.627-68.267-19.627-110.08s7.68-79.36,19.627-110.08
		c18.773,17.92,31.573,60.587,31.573,110.08S276.508,347.16,257.735,365.08 M485.575,253.293
		c-0.853-131.413-71.68-238.933-161.28-245.76c-81.067,7.68-145.92,115.2-145.92,247.467s64.853,240.64,145.92,247.467
		c78.507-5.973,143.36-88.747,157.867-197.973c1.707-16.213,3.413-32.427,3.413-49.493
		C485.575,254.147,485.575,254.147,485.575,253.293"/>
	<path style="fill:#FD9808;" d="M485.575,253.293c-0.853-131.413-71.68-238.933-161.28-245.76c-4.267,0-8.533,0.853-12.8,1.707
		c83.627,15.36,147.627,118.613,148.48,244.053c0,0.853,0,0.853,0,1.707c0,17.067-1.707,33.28-3.413,49.493
		c-14.507,102.4-71.68,181.76-144.213,195.413c3.413,0.853,7.68,1.707,11.093,1.707c78.507-5.973,143.36-88.747,157.867-197.973
		c1.707-16.213,3.413-32.427,3.413-49.493C485.575,254.147,485.575,253.293,485.575,253.293"/>
	<path style="fill:#FFDD09;" d="M315.761,502.467c-81.067-6.827-145.92-115.2-145.92-247.467S234.695,15.213,315.761,7.533h-0.853
		H195.441C101.575,7.533,24.775,118.467,24.775,255s76.8,247.467,170.667,247.467H315.761L315.761,502.467z"/>
	<path style="fill:#FFFFFF;" d="M49.521,255c0-136.533,76.8-247.467,170.667-247.467h-24.747
		C101.575,7.533,24.775,118.467,24.775,255s76.8,247.467,170.667,247.467h24.747C126.321,502.467,49.521,391.533,49.521,255"/>
	<path style="fill:#FD9808;" d="M331.975,434.2c52.053,0,93.867-80.213,93.867-179.2S384.028,75.8,331.975,75.8
		c-29.867,0-57.173,27.307-74.24,69.12c18.773,17.92,31.573,60.587,31.573,110.08s-12.8,92.16-31.573,110.08
		C267.121,406.893,295.281,426.52,331.975,434.2"/>
	<path style="fill:#FD7308;" d="M331.975,75.8c-4.267,0-8.533,0.853-12.8,1.707c46.08,11.947,81.067,87.04,81.067,177.493
		c0,88.747-34.133,162.987-78.507,176.64c3.413,0.853,6.827,1.707,10.24,2.56c52.053,0,93.867-80.213,93.867-179.2
		S384.028,75.8,331.975,75.8"/>
	<path d="M324.295,511C323.441,511,323.441,511,324.295,511c-87.04-7.68-154.453-119.467-154.453-256
		c0-135.68,67.413-248.32,153.6-256c0.853,0,0.853,0,1.707,0c93.867,7.68,168.107,119.467,168.96,254.293V255
		c0,17.067-1.707,34.133-3.413,50.347C474.481,420.547,406.215,504.173,324.295,511L324.295,511z M477.895,253.293
		C476.188,127,409.628,23.747,324.295,16.067c-76.8,7.68-137.387,111.787-137.387,238.933s59.733,231.253,137.387,238.933
		c73.387-5.973,134.827-84.48,150.187-190.293c1.707-16.213,3.413-32.427,3.413-48.64V253.293z"/>
	<path d="M331.975,442.733c-57.173,0-102.4-82.773-102.4-187.733s45.227-187.733,102.4-187.733s102.4,82.773,102.4,187.733
		S389.148,442.733,331.975,442.733z M331.975,84.333c-46.08,0-85.333,78.507-85.333,170.667s39.253,170.667,85.333,170.667
		S417.308,347.16,417.308,255S378.055,84.333,331.975,84.333z"/>
	<path d="M257.735,373.613c-0.853,0-0.853,0-1.707,0c-2.56-0.853-5.12-2.56-5.973-5.12c-13.653-33.28-20.48-72.533-20.48-113.493
		s6.827-80.213,20.48-113.493c0.853-2.56,3.413-4.267,5.973-5.12c2.56-0.853,5.973,0,7.68,2.56
		c20.48,20.48,34.133,65.707,34.133,116.053s-13.653,95.573-34.133,116.053C262.001,372.76,260.295,373.613,257.735,373.613z
		 M260.295,161.987c-9.387,27.307-13.653,59.733-13.653,93.013s5.12,64.853,13.653,93.013c12.8-21.333,20.48-55.467,20.48-93.013
		S273.095,183.32,260.295,161.987z"/>
	<path d="M29.895,203.8c-2.56,0-5.12-0.853-6.827-2.56c-3.413-3.413-2.56-8.533,0.853-11.947l29.013-25.6
		c3.413-2.56,8.533-2.56,11.947,0l19.627,19.627l19.627-19.627c3.413-3.413,8.533-3.413,11.947,0l19.627,19.627l19.627-19.627
		c3.413-3.413,8.533-3.413,11.947,0l22.187,22.187c3.413,3.413,3.413,8.533,0,11.947s-8.533,3.413-11.947,0l-16.213-16.213
		l-19.627,19.627c-3.413,3.413-8.533,3.413-11.947,0l-19.627-19.627L90.481,201.24c-3.413,3.413-8.533,3.413-11.947,0
		l-19.627-19.627l-23.04,20.48C34.161,202.947,31.601,203.8,29.895,203.8z"/>
	<path d="M34.161,345.453c-1.707,0-3.413-0.853-5.12-1.707c-3.413-2.56-4.267-8.533-1.707-11.947l24.747-30.72
		c1.707-1.707,4.267-3.413,5.973-3.413c2.56,0,5.12,0.853,6.827,2.56l19.627,19.627l19.627-19.627c3.413-3.413,8.533-3.413,11.947,0
		l19.627,19.627l19.627-19.627c3.413-3.413,7.68-3.413,11.093-0.853l23.04,17.92c3.413,2.56,4.267,8.533,1.707,11.947
		c-2.56,3.413-8.533,4.267-11.947,1.707l-17.067-13.653l-20.48,20.48c-3.413,3.413-8.533,3.413-11.947,0l-19.627-19.627
		l-19.627,19.627c-3.413,3.413-8.533,3.413-11.947,0L59.761,319l-18.773,23.04C39.281,343.747,36.721,345.453,34.161,345.453z"/>
	<path d="M152.775,408.6c-2.56,0-4.267-0.853-5.973-2.56l-19.627-19.627l-19.627,19.627c-3.413,3.413-8.533,3.413-11.947,0
		l-19.627-19.627l-15.36,15.36c-3.413,3.413-8.533,3.413-11.947,0c-3.413-3.413-3.413-8.533,0-11.947l21.333-21.333
		c3.413-3.413,8.533-3.413,11.947,0l19.627,19.627l19.627-19.627c3.413-3.413,8.533-3.413,11.947,0l17.92,17.92l11.093-17.067
		c2.56-3.413,6.827-5.12,11.093-2.56l34.133,17.067c4.267,1.707,5.973,6.827,3.413,11.093c-1.707,4.267-6.827,5.973-11.093,3.413
		l-27.307-13.653l-12.8,19.627C158.748,406.893,156.188,408.6,152.775,408.6C153.628,408.6,152.775,408.6,152.775,408.6z"/>
	<path d="M101.575,470.04c-2.56,0-5.12-0.853-6.827-3.413c-2.56-3.413-1.707-9.387,1.707-11.947l25.6-18.773
		c2.56-2.56,6.827-2.56,10.24,0l20.48,13.653l20.48-13.653c2.56-1.707,6.827-1.707,9.387,0l21.333,13.653l23.04-14.507
		c4.267-2.56,9.387-0.853,11.947,2.56c2.56,3.413,0.853,9.387-2.56,11.947l-28.16,17.067c-2.56,1.707-6.827,1.707-9.387,0
		l-20.48-13.653l-20.48,13.653c-2.56,1.707-6.827,1.707-9.387,0l-21.333-13.653l-20.48,15.36
		C104.988,470.04,103.281,470.04,101.575,470.04z"/>
	<path d="M199.708,138.093c-0.853,0-2.56,0-3.413-0.853l-34.133-17.067l-21.333,14.507c-2.56,1.707-6.827,1.707-9.387,0
		l-21.333-14.507l-20.48,13.653c-2.56,1.707-6.827,1.707-9.387,0l-25.6-17.067c-4.267-2.56-5.12-7.68-2.56-11.947
		c2.56-4.267,7.68-5.12,11.947-2.56l20.48,14.507l20.48-13.653c2.56-1.707,6.827-1.707,9.387,0l20.48,13.653l20.48-13.653
		c2.56-1.707,5.973-1.707,8.533-0.853l38.4,19.627c4.267,1.707,5.973,6.827,3.413,11.093
		C205.681,135.533,203.121,138.093,199.708,138.093z"/>
	<path d="M178.375,272.067c-1.707,0-3.413,0-4.267-0.853l-36.693-22.187l-20.48,20.48c-3.413,3.413-8.533,3.413-11.947,0
		l-20.48-19.627l-19.627,19.627c-2.56,2.56-6.827,3.413-10.24,1.707l-34.133-17.067c-4.267-1.707-5.973-6.827-3.413-11.093
		c1.707-4.267,6.827-5.973,11.093-3.413l29.013,14.507l21.333-21.333c3.413-3.413,8.533-3.413,11.947,0l19.627,19.627l19.627-19.627
		c2.56-2.56,6.827-3.413,10.24-1.707l42.667,25.6c4.267,2.56,5.12,7.68,2.56,11.947C184.348,270.36,180.935,272.067,178.375,272.067
		z"/>
	<path d="M230.428,78.36c-1.707,0-2.56,0-4.267-0.853L196.295,60.44l-21.333,14.507c-2.56,1.707-6.827,1.707-9.387,0L143.388,60.44
		L87.068,75.8c-5.12,0.853-9.387-1.707-11.093-5.973c-0.853-5.12,1.707-9.387,5.973-11.093l59.733-17.067c2.56,0,5.12,0,7.68,1.707
		l20.48,13.653l20.48-13.653c2.56-1.707,5.973-1.707,8.533,0L233.841,63c4.267,2.56,5.12,7.68,3.413,11.947
		C235.548,76.653,232.988,78.36,230.428,78.36z"/>
	<path d="M314.908,511H195.441c-98.987,0-179.2-115.2-179.2-256S96.455-1,195.441-1h119.467c3.413,0,6.827,0,9.387,0
		c4.267,0,7.68,4.267,7.68,8.533s-3.413,8.533-7.68,8.533C247.495,22.893,186.908,127.853,186.908,255
		s59.733,231.253,136.533,238.933c3.413,0,7.68-0.853,11.093-1.707c0,0,0,0,0.853,0c4.267-0.853,9.387,2.56,10.24,6.827
		c0.853,4.267-2.56,9.387-6.827,10.24l0,0l0,0l0,0c0,0,0,0-0.853,0c-5.12,0.853-9.387,1.707-13.653,1.707h-0.853l0,0
		C320.881,511,317.468,511,314.908,511z M195.441,16.067c-89.6,0-162.133,107.52-162.133,238.933s72.533,238.933,162.133,238.933
		h77.653C212.508,457.24,169.841,363.373,169.841,255S212.508,52.76,273.948,16.067H195.441z"/>
</g>
<g>
</g>
<g>
</g>
<g>
</g>
<g>
</g>
<g>
</g>
<g>
</g>
<g>
</g>
<g>
</g>
<g>
</g>
<g>
</g>
<g>
</g>
<g>
</g>
<g>
</g>
<g>
</g>
<g>
</g>
</svg>
